<svg xmlns:dc="http://purl.org/dc/elements/1.1/" xmlns:cc="http://creativecommons.org/ns#" xmlns:rdf="http://www.w3.org/1999/02/22-rdf-syntax-ns#" xmlns:svg="http://www.w3.org/2000/svg" xmlns="http://www.w3.org/2000/svg" xmlns:sodipodi="http://sodipodi.sourceforge.net/DTD/sodipodi-0.dtd" xmlns:inkscape="http://www.inkscape.org/namespaces/inkscape" version="1.1" x="0px" y="0px" viewBox="0 0 100 125"><g transform="translate(0,-952.36218)"><path style="text-indent:0;text-transform:none;direction:ltr;block-progression:tb;baseline-shift:baseline;color:#000000;enable-background:accumulate;" d="M 50 11.15625 L 49.65625 11.53125 C 41.473636 19.71386 38.04123 29.95666 37.53125 40.15625 C 37.351177 43.757688 37.539192 47.371062 38 50.875 C 33.957174 52.415112 31.371805 56.519666 30.4375 61.8125 C 29.474128 67.27 30.215323 74.0281 32.9375 80.8125 L 33.65625 82.59375 L 33.90625 80.6875 C 34.578753 75.3654 35.674538 71.7335 37.125 69.6875 C 38.535305 67.698145 40.189097 67.13486 42.4375 67.6875 C 42.565775 68.0087 42.68113 68.340965 42.8125 68.65625 L 42.9375 68.96875 L 43.25 68.96875 L 56.71875 68.96875 L 57.0625 68.96875 L 57.1875 68.65625 C 57.31887 68.340965 57.434225 68.0087 57.5625 67.6875 C 59.810901 67.134876 61.46468 67.698437 62.875 69.6875 C 64.325477 71.7335 65.421315 75.3654 66.09375 80.6875 L 66.34375 82.59375 L 67.0625 80.8125 C 69.784745 74.0281 70.525872 67.27 69.5625 61.8125 C 68.628195 56.519666 66.042881 52.415112 62 50.875 C 62.460808 47.371062 62.648829 43.757688 62.46875 40.15625 C 61.958753 29.95666 58.526431 19.71386 50.34375 11.53125 L 50 11.15625 z M 50 12.65625 C 53.659572 16.421222 56.318294 20.618221 58.15625 25.03125 L 41.84375 25.03125 C 43.681714 20.618221 46.340459 16.421222 50 12.65625 z M 41.4375 26.03125 L 58.5625 26.03125 C 60.325385 30.600016 61.228262 35.377897 61.46875 40.1875 C 61.642422 43.66082 61.465267 47.135559 61.03125 50.53125 L 61.03125 50.5625 C 60.92567 51.385397 60.823128 52.219207 60.6875 53.03125 C 60.685838 53.041443 60.689167 53.052305 60.6875 53.0625 C 59.790797 58.416127 58.246134 63.491861 56.40625 67.96875 L 43.59375 67.96875 C 43.200061 67.010807 42.799323 66.041944 42.4375 65.03125 C 42.422799 64.990477 42.420861 64.947007 42.40625 64.90625 C 41.09693 61.227225 40.00956 57.224192 39.3125 53.0625 C 39.310833 53.052305 39.314162 53.041443 39.3125 53.03125 C 38.615598 48.858707 38.31497 44.513106 38.53125 40.1875 C 38.77173 35.377897 39.674605 30.600016 41.4375 26.03125 z M 50.03125 28.0625 L 49.96875 28.5625 L 51.09375 28.65625 L 51.125 28.65625 L 51.25 28.6875 L 51.375 28.21875 L 51.21875 28.1875 L 51.1875 28.125 L 50.03125 28.0625 z M 48.625 28.21875 L 47.6875 28.5 L 47.65625 28.5 L 47.3125 28.71875 L 47.5 29.15625 L 47.84375 28.96875 L 47.90625 28.9375 L 48.75 28.6875 L 48.625 28.21875 z M 52.6875 28.71875 L 52.46875 29.15625 L 53.03125 29.4375 L 53.0625 29.46875 L 53.53125 29.875 L 53.875 29.46875 L 53.375 29.0625 L 53.3125 29.0625 L 52.6875 28.71875 z M 46.125 29.46875 L 45.78125 29.78125 L 45.75 29.8125 L 45.1875 30.5 L 45.59375 30.84375 L 46.125 30.15625 L 46.46875 29.875 L 46.125 29.46875 z M 50 30 C 47.796821 30 46.03125 31.82803 46.03125 34.03125 C 46.03125 36.23447 47.796821 38 50 38 C 52.20318 38 53.96875 36.23447 53.96875 34.03125 C 53.96875 31.82803 52.20318 30 50 30 z M 54.8125 30.5 L 54.40625 30.84375 L 54.5625 30.90625 L 54.5625 30.96875 L 55.0625 31.84375 L 55.0625 31.875 L 55.25 31.8125 L 55.53125 31.75 L 55.53125 31.71875 L 55.53125 31.6875 L 54.96875 30.71875 L 54.9375 30.65625 L 54.8125 30.5 z M 50 31 C 51.66278 31 53.03125 32.36849 53.03125 34.03125 C 53.03125 35.69402 51.66278 37 50 37 C 48.337221 37 46.96875 35.69402 46.96875 34.03125 C 46.96875 32.36849 48.337221 31 50 31 z M 44.46875 31.75 L 44.15625 32.78125 L 44.15625 32.84375 L 44.09375 33.09375 L 44.625 33.15625 L 44.65625 32.90625 L 44.625 32.90625 L 44.9375 31.875 L 44.46875 31.75 z M 55.90625 33.09375 L 55.375 33.15625 L 55.46875 34 L 55.46875 34.03125 L 55.34375 35.125 L 55.3125 35.25 L 55.8125 35.40625 L 55.84375 35.25 L 55.84375 35.21875 L 55.96875 34.03125 L 55.71875 34.03125 L 55.96875 34 L 55.90625 33.09375 z M 44.5625 34.4375 L 44.0625 34.5 L 44.15625 35.21875 L 44.15625 35.25 L 44.34375 35.84375 L 44.8125 35.71875 L 44.65625 35.125 L 44.5625 34.4375 z M 54.84375 36.46875 L 54.5625 37.0625 L 54.5625 37.09375 L 54.125 37.5625 L 54.5625 37.875 L 54.9375 37.34375 L 54.96875 37.3125 L 55.3125 36.71875 L 54.84375 36.46875 z M 45.375 36.90625 L 44.90625 37.09375 L 45.03125 37.3125 L 45.0625 37.34375 L 45.75 38.25 L 46.125 37.90625 L 45.4375 37.09375 L 45.4375 37.0625 L 45.375 36.90625 z M 53.1875 38.4375 L 53.0625 38.53125 L 53.03125 38.59375 L 52.15625 39.03125 L 52.09375 39.09375 L 52.28125 39.5625 L 52.3125 39.5625 L 52.34375 39.5 L 53.3125 39 L 53.375 38.96875 L 53.5 38.84375 L 53.1875 38.4375 z M 47.125 38.65625 L 46.875 39.09375 L 47.65625 39.5 L 47.6875 39.5625 L 48.15625 39.6875 L 48.3125 39.21875 L 47.90625 39.09375 L 47.84375 39.03125 L 47.125 38.65625 z M 50.875 39.40625 L 50.03125 39.5 L 50 39.5 L 49.96875 39.5 L 49.59375 39.46875 L 49.53125 39.9375 L 49.96875 39.96875 L 50.03125 39.96875 L 50.9375 39.875 L 50.875 39.40625 z M 49.5625 41.0625 L 49.0625 41.09375 L 49.03125 41.09375 L 48.25 41.34375 L 48.375 41.8125 L 49.15625 41.5625 L 49.15625 41.59375 L 49.625 41.53125 L 49.5625 41.0625 z M 51 41.09375 L 50.875 41.59375 L 51.59375 41.8125 L 51.625 41.8125 L 52.03125 42.0625 L 52.3125 41.65625 L 51.78125 41.40625 L 51.75 41.34375 L 51 41.09375 z M 47.03125 42.09375 L 46.78125 42.3125 L 46.71875 42.34375 L 46.1875 43.03125 L 46.1875 43.0625 L 46.09375 43.1875 L 46.53125 43.4375 L 46.5625 43.3125 L 46.59375 43.28125 L 47.0625 42.71875 L 47.09375 42.71875 L 47.09375 42.6875 L 47.375 42.46875 L 47.03125 42.09375 z M 53.375 42.53125 L 53 42.84375 L 53.375 43.28125 L 53.4375 43.3125 L 53.71875 43.90625 L 54.1875 43.6875 L 53.8125 43.0625 L 53.8125 43.03125 L 53.375 42.53125 z M 50 43.125 C 48.6252 43.125 47.5 44.25021 47.5 45.625 C 47.5 46.9998 48.6252 48.125 50 48.125 C 51.374799 48.125 52.5 46.9998 52.5 45.625 C 52.5 44.25021 51.374799 43.125 50 43.125 z M 50 44.125 C 50.834266 44.125 51.5 44.79066 51.5 45.625 C 51.5 46.45934 50.834266 47.125 50 47.125 C 49.165733 47.125 48.5 46.45934 48.5 45.625 C 48.5 44.79066 49.165733 44.125 50 44.125 z M 45.5625 44.4375 L 45.46875 44.65625 L 45.46875 44.6875 L 45.40625 45.5625 L 45.40625 45.625 L 45.4375 45.875 L 45.9375 45.8125 L 45.90625 45.625 L 45.90625 45.5625 L 45.96875 44.78125 L 45.96875 44.75 L 46.03125 44.625 L 45.5625 44.4375 z M 54.5625 45.0625 L 54.0625 45.125 L 54.09375 45.5625 L 54.09375 45.625 L 54 46.40625 L 54 46.46875 L 53.875 46.84375 L 54.34375 47 L 54.5 46.53125 L 54.5 46.5 L 54.59375 45.625 L 54.34375 45.625 L 54.59375 45.5625 L 54.5625 45.0625 z M 46.1875 47.09375 L 45.6875 47.25 L 45.71875 47.375 L 45.78125 47.40625 L 46.1875 48.15625 L 46.1875 48.21875 L 46.4375 48.46875 L 46.8125 48.15625 L 46.59375 47.90625 L 46.5625 47.875 L 46.21875 47.21875 L 46.1875 47.15625 L 46.1875 47.09375 z M 53.34375 47.96875 L 52.875 48.5 L 52.46875 48.875 L 52.75 49.25 L 53.21875 48.875 L 53.25 48.84375 L 53.71875 48.25 L 53.34375 47.96875 z M 47.6875 49 L 47.5 49.4375 L 48.1875 49.84375 L 48.25 49.84375 L 48.75 50 L 48.875 49.5 L 48.40625 49.375 L 48.375 49.375 L 47.6875 49 z M 51.375 49.46875 L 50.84375 49.625 L 50.78125 49.625 L 50.125 49.6875 L 50.15625 50.1875 L 50.90625 50.09375 L 50.96875 50.09375 L 51.5 49.9375 L 51.375 49.46875 z M 38.15625 51.9375 C 38.240225 52.504351 38.339604 53.063858 38.4375 53.625 C 38.442755 53.655628 38.432195 53.688106 38.4375 53.71875 C 38.524493 54.213381 38.621489 54.697888 38.71875 55.1875 C 39.126204 57.250225 39.645665 59.346992 40.28125 61.46875 C 40.808991 63.25188 41.400927 64.969082 42.03125 66.625 C 39.756818 66.2842 37.762035 67.0803 36.3125 69.125 C 34.911811 71.1008 33.966135 74.3845 33.28125 78.625 C 31.185648 72.6181 30.567927 66.71785 31.40625 61.96875 C 32.282899 57.00245 34.649948 53.3861 38.15625 51.9375 z M 61.84375 51.9375 C 65.350115 53.3861 67.717102 57.00245 68.59375 61.96875 C 69.432073 66.71785 68.814407 72.6181 66.71875 78.625 C 66.033907 74.3845 65.088205 71.1008 63.6875 69.125 C 62.237949 67.0803 60.243188 66.2842 57.96875 66.625 C 58.599074 64.969082 59.191008 63.25188 59.71875 61.46875 C 60.354335 59.346992 60.873796 57.250225 61.28125 55.1875 C 61.378511 54.697888 61.475507 54.213381 61.5625 53.71875 C 61.58251 53.603164 61.605706 53.490357 61.625 53.375 C 61.70629 52.898227 61.772517 52.418341 61.84375 51.9375 z M 49.8125 52.0625 L 49.875 52.5625 L 49.96875 52.5 L 50 52.5 L 50.03125 52.5 L 50.75 52.59375 L 50.78125 52.59375 L 51.09375 52.71875 L 51.25 52.21875 L 50.875 52.125 L 50.84375 52.125 L 50.03125 52.0625 L 49.96875 52.0625 L 49.8125 52.0625 z M 48.34375 52.34375 L 48.3125 52.375 L 47.59375 52.75 L 47.21875 53.0625 L 47.5625 53.4375 L 47.84375 53.1875 L 47.875 53.1875 L 48.46875 52.84375 L 48.53125 52.8125 L 48.59375 52.8125 L 48.4375 52.34375 L 48.34375 52.34375 z M 52.53125 52.90625 L 52.21875 53.28125 L 52.65625 53.59375 L 52.65625 53.65625 L 52.6875 53.65625 L 53.125 54.1875 L 53.5 53.875 L 53.03125 53.3125 L 53.03125 53.28125 L 52.53125 52.90625 z M 46.28125 54.15625 L 46.03125 54.625 L 46.03125 54.65625 L 45.78125 55.40625 L 45.78125 55.5 L 46.03125 55.5 L 46.125 55.53125 L 46.28125 55.59375 L 46.28125 55.53125 L 46.5 54.875 L 46.5 54.84375 L 46.75 54.40625 L 46.28125 54.15625 z M 50 54.15625 C 48.799601 54.15625 47.8125 55.14335 47.8125 56.34375 C 47.8125 57.54415 48.799601 58.5 50 58.5 C 51.200399 58.5 52.1875 57.54415 52.1875 56.34375 C 52.1875 55.14335 51.200399 54.15625 50 54.15625 z M 50 55.125 C 50.660091 55.125 51.1875 55.68375 51.1875 56.34375 C 51.1875 57.00375 50.660091 57.53125 50 57.53125 C 49.339908 57.53125 48.8125 57.00375 48.8125 56.34375 C 48.8125 55.68375 49.339908 55.125 50 55.125 z M 54.125 55.15625 L 53.625 55.28125 L 53.6875 55.53125 L 53.6875 55.59375 L 53.78125 56.3125 L 53.78125 56.34375 L 53.6875 57.0625 L 53.6875 57.09375 L 53.5625 57.5625 L 54.03125 57.71875 L 54.21875 57.21875 L 54.21875 57.1875 L 54.28125 56.34375 L 54.03125 56.34375 L 54.28125 56.3125 L 54.21875 55.5 L 54.21875 55.40625 L 54.125 55.15625 z M 46.25 56.84375 L 45.75 56.90625 L 45.78125 57.1875 L 45.78125 57.21875 L 46.03125 58 L 46.03125 58.03125 L 46.21875 58.28125 L 46.625 58.03125 L 46.5 57.8125 L 46.5 57.78125 L 46.28125 57.09375 L 46.28125 57.0625 L 46.25 56.84375 z M 52.9375 58.65625 L 52.6875 59 L 52.65625 59.03125 L 52.15625 59.46875 L 52.09375 59.5 L 52.0625 59.5 L 52.28125 59.96875 L 52.40625 59.875 L 53.03125 59.375 L 53.03125 59.34375 L 53.375 59 L 52.9375 58.65625 z M 47.34375 59.03125 L 47.0625 59.40625 L 47.59375 59.875 L 48.1875 60.21875 L 48.4375 59.75 L 47.875 59.5 L 47.84375 59.46875 L 47.34375 59.03125 z M 50.875 60 L 50.78125 60.0625 L 50.75 60.0625 L 50.03125 60.125 L 50 60.125 L 49.96875 60.125 L 49.625 60.09375 L 49.5625 60.59375 L 49.96875 60.59375 L 50.03125 60.59375 L 50.84375 60.5625 L 50.875 60.5 L 51 60.46875 L 50.875 60 z M 43.28125 70 L 43.625 70.6875 L 44.96875 73.6875 L 45.09375 74 L 45.40625 74 L 54.5625 74 L 54.90625 74 L 55.03125 73.6875 L 56.375 70.6875 L 56.6875 70 L 55.9375 70 L 44.0625 70 L 43.28125 70 z M 44.84375 71 L 55.15625 71 L 54.25 73 L 45.75 73 L 44.84375 71 z M 47 76 L 47 82.75 L 48 82.75 L 48 76 L 47 76 z M 50 76 L 50 86.78125 L 51 86.78125 L 51 76 L 50 76 z M 53 76 L 53 84.0625 L 54 84.0625 L 54 76 L 53 76 z M 46.8125 83.96875 L 46.8125 85.3125 L 47.8125 85.3125 L 47.8125 83.96875 L 46.8125 83.96875 z M 53 85.40625 L 53 86.78125 L 54 86.78125 L 54 85.40625 L 53 85.40625 z M 50 88.125 L 50 89.46875 L 51 89.46875 L 51 88.125 L 50 88.125 z " transform="translate(0,952.36218)" fill="#000000" fill-opacity="1" stroke="none" marker="none" visibility="visible" display="inline" overflow="visible"/></g><text x="0" y="115" fill="#000000" font-size="5px" font-weight="bold" font-family="'Helvetica Neue', Helvetica, Arial-Unicode, Arial, Sans-serif">Created by Chameleon Design</text><text x="0" y="120" fill="#000000" font-size="5px" font-weight="bold" font-family="'Helvetica Neue', Helvetica, Arial-Unicode, Arial, Sans-serif">from the Noun Project</text></svg>